<svg width="853" height="159" viewBox="0 0 853 159" fill="none" xmlns="http://www.w3.org/2000/svg">
<path d="M12.0625 128V34.9091H37.3352V72.5455H38.608L66.608 34.9091H96.0625L64.608 76.3636L96.7898 128H66.608L45.6989 93.0909L37.3352 104V128H12.0625ZM127.744 128H100.472L131.199 34.9091H165.744L196.472 128H169.199L148.835 60.5455H148.108L127.744 128ZM122.653 91.2727H173.926V110.182H122.653V91.2727ZM205.438 34.9091H236.892L258.528 87.6364H259.619L281.256 34.9091H312.71V128H287.983V74.1818H287.256L266.528 127.273H251.619L230.892 73.8182H230.165V128H205.438V34.9091ZM349.96 34.9091V128H324.688V34.9091H349.96ZM385.574 128L358.119 34.9091H386.301L399.028 92.1818H399.756L414.847 34.9091H437.028L452.119 92.3636H452.847L465.574 34.9091H493.756L466.301 128H442.119L426.301 76H425.574L409.756 128H385.574ZM586.244 81.4545C586.244 91.8182 584.229 100.561 580.199 107.682C576.169 114.773 570.729 120.152 563.881 123.818C557.032 127.455 549.396 129.273 540.972 129.273C532.487 129.273 524.82 127.439 517.972 123.773C511.153 120.076 505.729 114.682 501.699 107.591C497.699 100.47 495.699 91.7576 495.699 81.4545C495.699 71.0909 497.699 62.3636 501.699 55.2727C505.729 48.1515 511.153 42.7727 517.972 39.1364C524.82 35.4697 532.487 33.6364 540.972 33.6364C549.396 33.6364 557.032 35.4697 563.881 39.1364C570.729 42.7727 576.169 48.1515 580.199 55.2727C584.229 62.3636 586.244 71.0909 586.244 81.4545ZM560.244 81.4545C560.244 75.8788 559.502 71.1818 558.017 67.3636C556.562 63.5151 554.396 60.6061 551.517 58.6364C548.669 56.6364 545.153 55.6364 540.972 55.6364C536.79 55.6364 533.259 56.6364 530.381 58.6364C527.532 60.6061 525.366 63.5151 523.881 67.3636C522.426 71.1818 521.699 75.8788 521.699 81.4545C521.699 87.0303 522.426 91.7424 523.881 95.5909C525.366 99.4091 527.532 102.318 530.381 104.318C533.259 106.288 536.79 107.273 540.972 107.273C545.153 107.273 548.669 106.288 551.517 104.318C554.396 102.318 556.562 99.4091 558.017 95.5909C559.502 91.7424 560.244 87.0303 560.244 81.4545ZM597.938 128V34.9091H638.119C645.028 34.9091 651.074 36.1667 656.256 38.6818C661.438 41.197 665.468 44.8182 668.347 49.5455C671.225 54.2727 672.665 59.9394 672.665 66.5455C672.665 73.2121 671.18 78.8333 668.21 83.4091C665.271 87.9848 661.134 91.4394 655.801 93.7727C650.498 96.1061 644.301 97.2727 637.21 97.2727H613.21V77.6364H632.119C635.089 77.6364 637.619 77.2727 639.71 76.5455C641.831 75.7879 643.453 74.5909 644.574 72.9545C645.725 71.3182 646.301 69.1818 646.301 66.5455C646.301 63.8788 645.725 61.7121 644.574 60.0455C643.453 58.3485 641.831 57.1061 639.71 56.3182C637.619 55.5 635.089 55.0909 632.119 55.0909H623.21V128H597.938ZM652.483 85.2727L675.756 128H648.301L625.574 85.2727H652.483ZM683.438 128V34.9091H708.71V72.5455H709.983L737.983 34.9091H767.438L735.983 76.3636L768.165 128H737.983L717.074 93.0909L708.71 104V128H683.438ZM823.869 64C823.627 60.9697 822.491 58.6061 820.46 56.9091C818.46 55.2121 815.415 54.3636 811.324 54.3636C808.718 54.3636 806.581 54.6818 804.915 55.3182C803.278 55.9242 802.066 56.7576 801.278 57.8182C800.491 58.8788 800.081 60.0909 800.051 61.4545C799.991 62.5758 800.188 63.5909 800.642 64.5C801.127 65.3788 801.884 66.1818 802.915 66.9091C803.945 67.6061 805.263 68.2424 806.869 68.8182C808.475 69.3939 810.384 69.9091 812.597 70.3636L820.233 72C825.384 73.0909 829.794 74.5303 833.46 76.3182C837.127 78.1061 840.127 80.2121 842.46 82.6364C844.794 85.0303 846.506 87.7273 847.597 90.7273C848.718 93.7273 849.294 97 849.324 100.545C849.294 106.667 847.763 111.848 844.733 116.091C841.703 120.333 837.369 123.561 831.733 125.773C826.127 127.985 819.384 129.091 811.506 129.091C803.415 129.091 796.354 127.894 790.324 125.5C784.324 123.106 779.657 119.424 776.324 114.455C773.021 109.455 771.354 103.061 771.324 95.2727H795.324C795.475 98.1212 796.188 100.515 797.46 102.455C798.733 104.394 800.521 105.864 802.824 106.864C805.157 107.864 807.93 108.364 811.142 108.364C813.839 108.364 816.097 108.03 817.915 107.364C819.733 106.697 821.112 105.773 822.051 104.591C822.991 103.409 823.475 102.061 823.506 100.545C823.475 99.1212 823.006 97.8788 822.097 96.8182C821.218 95.7273 819.763 94.7576 817.733 93.9091C815.703 93.0303 812.96 92.2121 809.506 91.4545L800.233 89.4545C791.991 87.6667 785.491 84.6818 780.733 80.5C776.006 76.2879 773.657 70.5455 773.688 63.2727C773.657 57.3636 775.233 52.197 778.415 47.7727C781.627 43.3182 786.066 39.8485 791.733 37.3636C797.43 34.8788 803.96 33.6364 811.324 33.6364C818.839 33.6364 825.339 34.8939 830.824 37.4091C836.309 39.9242 840.536 43.4697 843.506 48.0455C846.506 52.5909 848.021 57.9091 848.051 64H823.869Z" fill="#FF3A1A"/>
<path d="M6.125 124V30.9091H31.3977V68.5455H32.6705L60.6705 30.9091H90.125L58.6705 72.3636L90.8523 124H60.6705L39.7614 89.0909L31.3977 100V124H6.125ZM121.807 124H94.5341L125.261 30.9091H159.807L190.534 124H163.261L142.898 56.5455H142.17L121.807 124ZM116.716 87.2727H167.989V106.182H116.716V87.2727ZM199.5 30.9091H230.955L252.591 83.6364H253.682L275.318 30.9091H306.773V124H282.045V70.1818H281.318L260.591 123.273H245.682L224.955 69.8182H224.227V124H199.5V30.9091ZM344.023 30.9091V124H318.75V30.9091H344.023ZM379.636 124L352.182 30.9091H380.364L393.091 88.1818H393.818L408.909 30.9091H431.091L446.182 88.3636H446.909L459.636 30.9091H487.818L460.364 124H436.182L420.364 72H419.636L403.818 124H379.636ZM580.307 77.4545C580.307 87.8182 578.292 96.5606 574.261 103.682C570.231 110.773 564.792 116.152 557.943 119.818C551.095 123.455 543.458 125.273 535.034 125.273C526.549 125.273 518.883 123.439 512.034 119.773C505.216 116.076 499.792 110.682 495.761 103.591C491.761 96.4697 489.761 87.7576 489.761 77.4545C489.761 67.0909 491.761 58.3636 495.761 51.2727C499.792 44.1515 505.216 38.7727 512.034 35.1364C518.883 31.4697 526.549 29.6364 535.034 29.6364C543.458 29.6364 551.095 31.4697 557.943 35.1364C564.792 38.7727 570.231 44.1515 574.261 51.2727C578.292 58.3636 580.307 67.0909 580.307 77.4545ZM554.307 77.4545C554.307 71.8788 553.564 67.1818 552.08 63.3636C550.625 59.5151 548.458 56.6061 545.58 54.6364C542.731 52.6364 539.216 51.6364 535.034 51.6364C530.852 51.6364 527.322 52.6364 524.443 54.6364C521.595 56.6061 519.428 59.5151 517.943 63.3636C516.489 67.1818 515.761 71.8788 515.761 77.4545C515.761 83.0303 516.489 87.7424 517.943 91.5909C519.428 95.4091 521.595 98.3182 524.443 100.318C527.322 102.288 530.852 103.273 535.034 103.273C539.216 103.273 542.731 102.288 545.58 100.318C548.458 98.3182 550.625 95.4091 552.08 91.5909C553.564 87.7424 554.307 83.0303 554.307 77.4545ZM592 124V30.9091H632.182C639.091 30.9091 645.136 32.1667 650.318 34.6818C655.5 37.197 659.53 40.8182 662.409 45.5455C665.288 50.2727 666.727 55.9394 666.727 62.5455C666.727 69.2121 665.242 74.8333 662.273 79.4091C659.333 83.9848 655.197 87.4394 649.864 89.7727C644.561 92.1061 638.364 93.2727 631.273 93.2727H607.273V73.6364H626.182C629.152 73.6364 631.682 73.2727 633.773 72.5455C635.894 71.7879 637.515 70.5909 638.636 68.9545C639.788 67.3182 640.364 65.1818 640.364 62.5455C640.364 59.8788 639.788 57.7121 638.636 56.0455C637.515 54.3485 635.894 53.1061 633.773 52.3182C631.682 51.5 629.152 51.0909 626.182 51.0909H617.273V124H592ZM646.545 81.2727L669.818 124H642.364L619.636 81.2727H646.545ZM677.5 124V30.9091H702.773V68.5455H704.045L732.045 30.9091H761.5L730.045 72.3636L762.227 124H732.045L711.136 89.0909L702.773 100V124H677.5ZM817.932 60C817.689 56.9697 816.553 54.6061 814.523 52.9091C812.523 51.2121 809.477 50.3636 805.386 50.3636C802.78 50.3636 800.644 50.6818 798.977 51.3182C797.341 51.9242 796.129 52.7576 795.341 53.8182C794.553 54.8788 794.144 56.0909 794.114 57.4545C794.053 58.5758 794.25 59.5909 794.705 60.5C795.189 61.3788 795.947 62.1818 796.977 62.9091C798.008 63.6061 799.326 64.2424 800.932 64.8182C802.538 65.3939 804.447 65.9091 806.659 66.3636L814.295 68C819.447 69.0909 823.856 70.5303 827.523 72.3182C831.189 74.1061 834.189 76.2121 836.523 78.6364C838.856 81.0303 840.568 83.7273 841.659 86.7273C842.78 89.7273 843.356 93 843.386 96.5455C843.356 102.667 841.826 107.848 838.795 112.091C835.765 116.333 831.432 119.561 825.795 121.773C820.189 123.985 813.447 125.091 805.568 125.091C797.477 125.091 790.417 123.894 784.386 121.5C778.386 119.106 773.72 115.424 770.386 110.455C767.083 105.455 765.417 99.0606 765.386 91.2727H789.386C789.538 94.1212 790.25 96.5152 791.523 98.4545C792.795 100.394 794.583 101.864 796.886 102.864C799.22 103.864 801.992 104.364 805.205 104.364C807.902 104.364 810.159 104.03 811.977 103.364C813.795 102.697 815.174 101.773 816.114 100.591C817.053 99.4091 817.538 98.0606 817.568 96.5455C817.538 95.1212 817.068 93.8788 816.159 92.8182C815.28 91.7273 813.826 90.7576 811.795 89.9091C809.765 89.0303 807.023 88.2121 803.568 87.4545L794.295 85.4545C786.053 83.6667 779.553 80.6818 774.795 76.5C770.068 72.2879 767.72 66.5455 767.75 59.2727C767.72 53.3636 769.295 48.197 772.477 43.7727C775.689 39.3182 780.129 35.8485 785.795 33.3636C791.492 30.8788 798.023 29.6364 805.386 29.6364C812.902 29.6364 819.402 30.8939 824.886 33.4091C830.371 35.9242 834.598 39.4697 837.568 44.0455C840.568 48.5909 842.083 53.9091 842.114 60H817.932Z" fill="black"/>
</svg>
